<?xml version="1.0" encoding="utf-8"?><svg viewBox="0 0 53 53" xmlns="http://www.w3.org/2000/svg" xmlns:xlink="http://www.w3.org/1999/xlink"><style>:root>svg{display:none}:root>svg:target{display:block}</style><svg fill="none" viewBox="0 0 11 20" id="arrow" xmlns="http://www.w3.org/2000/svg"><path d="M8.75 17.75L2 9.875 8.75 2" stroke="#333" stroke-width="3" stroke-linecap="round" stroke-linejoin="round"/></svg><svg fill="none" viewBox="0 0 40 38" id="box" xmlns="http://www.w3.org/2000/svg"><path d="M39.219.108H.78A.781.781 0 000 .89v6.754c0 .431.35.781.781.781h1.095V37.11c0 .432.35.782.781.782h34.686c.431 0 .781-.35.781-.782V8.425h1.095c.431 0 .781-.35.781-.781V.89a.781.781 0 00-.781-.782zM14.85 1.671h10.3v5.191h-10.3V1.671zm0 6.754h10.3v10.206l-1.74-1.208a.781.781 0 00-.891 0L20 19.17l-2.519-1.747a.78.78 0 00-.89 0l-1.74 1.208V8.425zM1.563 6.862V1.671h11.725v5.191H1.562zm11.725 1.563v2.114h-9.85V8.425h9.85zm7.927 14.12v13.784H3.438V12.101h9.85v8.022a.781.781 0 001.226.642l2.522-1.749 2.519 1.746a.781.781 0 00.89 0l2.519-1.746 2.522 1.75a.78.78 0 001.226-.642V12.1h3.427a.781.781 0 100-1.562h-3.427V8.425h9.85v13.339H21.996a.781.781 0 00-.781.78zm15.347 13.784H22.777V23.326h13.785v13.003zm1.876-29.467H26.712V1.671h11.726v5.191z" fill="#333"/></svg><svg fill="none" viewBox="0 0 41 41" id="coins" xmlns="http://www.w3.org/2000/svg"><path d="M31.023 14.027a3.67 3.67 0 00-.356-.654h2.085a3.688 3.688 0 003.683-3.684 3.688 3.688 0 00-3.683-3.683h-6.413c.408-.593.647-1.31.647-2.082A3.688 3.688 0 0023.303.24H3.683A3.688 3.688 0 000 3.924a3.688 3.688 0 003.684 3.683h6.412A3.662 3.662 0 009.45 9.69c0 .773.24 1.49.647 2.082H8.008a3.688 3.688 0 00-3.684 3.684c0 1.167.546 2.208 1.395 2.883a3.677 3.677 0 000 5.765 3.677 3.677 0 000 5.766 3.678 3.678 0 00-1.395 2.883 3.688 3.688 0 003.684 3.683h9.437a13.577 13.577 0 009.942 4.325C34.893 40.76 41 34.653 41 27.147c0-6.248-4.23-11.525-9.977-13.12zm1.729-6.42c1.148 0 2.082.934 2.082 2.082a2.084 2.084 0 01-2.082 2.082H13.133A2.084 2.084 0 0111.05 9.69c0-1.148.934-2.082 2.082-2.082h19.619zM3.684 6.006a2.084 2.084 0 01-2.082-2.082c0-1.148.934-2.082 2.082-2.082h19.619c1.148 0 2.082.934 2.082 2.082a2.084 2.084 0 01-2.082 2.082H3.683zm4.324 7.367h19.619c.323 0 .631.075.908.21a13.571 13.571 0 00-10.782 3.955H8.008a2.084 2.084 0 01-2.082-2.083c0-1.148.934-2.082 2.082-2.082zm0 5.766h8.377a13.575 13.575 0 00-2.058 4.164h-6.32a2.084 2.084 0 01-2.081-2.082c0-1.148.934-2.082 2.082-2.082zm0 5.765h5.951a13.642 13.642 0 00-.05 4.164H8.009a2.084 2.084 0 01-2.082-2.082c0-1.148.934-2.082 2.082-2.082zm0 9.93a2.084 2.084 0 01-2.082-2.082c0-1.148.934-2.082 2.082-2.082h6.229a13.558 13.558 0 001.921 4.164h-8.15zm19.379 4.324c-6.623 0-12.012-5.388-12.012-12.012 0-6.623 5.389-12.011 12.012-12.011s12.011 5.388 12.011 12.011c0 6.624-5.388 12.012-12.011 12.012z" fill="#333"/></svg><svg fill="none" viewBox="0 0 18 18" id="face" xmlns="http://www.w3.org/2000/svg"><path d="M3.287 0A3.28 3.28 0 000 3.287v11.426A3.28 3.28 0 003.287 18H9.48v-7.037H7.62V8.43h1.86V6.265c0-1.7 1.1-3.262 3.632-3.262 1.025 0 1.784.099 1.784.099l-.06 2.366s-.773-.008-1.617-.008c-.914 0-1.06.421-1.06 1.12v1.85h2.75l-.12 2.533h-2.63V18h2.554A3.28 3.28 0 0018 14.713V3.287A3.28 3.28 0 0014.713 0H3.287z" fill="#333"/></svg><svg fill="none" viewBox="0 0 18 18" id="insta" xmlns="http://www.w3.org/2000/svg"><path d="M8.998 5.999a3.008 3.008 0 00-3.002 3 3.008 3.008 0 003.002 3.002 3.008 3.008 0 003-3.001 3.008 3.008 0 00-3-3.001zm9.001 3c0-1.242.011-2.474-.058-3.714-.07-1.441-.4-2.72-1.453-3.774C15.432.455 14.156.13 12.715.06 11.472-.01 10.24.001 9 .001 7.757 0 6.525-.011 5.285.059 3.844.13 2.565.458 1.51 1.511.455 2.567.13 3.844.06 5.285-.01 6.528.001 7.759.001 9c0 1.24-.012 2.474.058 3.715.07 1.44.399 2.72 1.452 3.773 1.056 1.056 2.333 1.383 3.774 1.453 1.243.07 2.474.058 3.715.058 1.243 0 2.474.011 3.715-.058 1.44-.07 2.72-.4 3.773-1.453 1.056-1.056 1.383-2.332 1.453-3.773.072-1.24.058-2.472.058-3.715zm-9.001 4.619A4.611 4.611 0 014.38 9a4.611 4.611 0 014.618-4.618A4.611 4.611 0 0113.615 9a4.611 4.611 0 01-4.617 4.618zm4.807-8.347a1.077 1.077 0 01-1.079-1.078c0-.597.482-1.079 1.079-1.079a1.077 1.077 0 01.412 2.076c-.13.054-.27.082-.412.081z" fill="#333"/></svg><svg fill="none" viewBox="0 0 53 53" id="phone" xmlns="http://www.w3.org/2000/svg"><path d="M40.947 28.648a2.78 2.78 0 00-3.935 0l-4.437 4.437c-2.057-.613-5.895-2.004-8.327-4.437-2.433-2.432-3.824-6.27-4.437-8.327l4.437-4.437a2.782 2.782 0 000-3.935L13.115.816a2.78 2.78 0 00-3.935 0L1.632 8.364A5.562 5.562 0 000 12.358c.064 3.963 1.113 17.73 11.962 28.578 10.849 10.849 24.615 11.895 28.58 11.962h.079a5.5 5.5 0 003.91-1.63l7.548-7.549a2.78 2.78 0 000-3.935L40.947 28.648zm-.353 18.681c-3.474-.058-15.358-.99-24.696-10.331C6.53 27.63 5.623 15.703 5.567 12.3l5.58-5.58 7.198 7.197-3.599 3.598a2.783 2.783 0 00-.757 2.539c.067.32 1.7 7.91 6.32 12.53 4.62 4.62 12.21 6.253 12.53 6.32a2.758 2.758 0 002.539-.754l3.602-3.599 7.197 7.198-5.583 5.58z" fill="#FDF7F7"/></svg><svg fill="none" viewBox="0 0 14 14" id="select" xmlns="http://www.w3.org/2000/svg"><path d="M4.966 13.998c-.434 0-.846-.203-1.11-.553L.282 8.724a1.392 1.392 0 011.303-2.221 1.392 1.392 0 01.92.54l2.351 3.104L10.768.655a1.396 1.396 0 011.92-.445c.653.406.854 1.266.446 1.92L6.15 13.34a1.39 1.39 0 01-1.12.656c-.022.002-.042.002-.064.002z" fill="#333"/></svg><svg fill="none" viewBox="0 0 16 16" id="star" xmlns="http://www.w3.org/2000/svg"><path d="M15.5 6.3H9.775L8 .75 6.225 6.3H.5l4.625 3.425-1.75 5.525L8 11.825l4.625 3.425L10.85 9.7l4.65-3.4z" fill="#FF352B"/></svg><svg fill="none" viewBox="0 0 52 40" id="truck" xmlns="http://www.w3.org/2000/svg"><path d="M44.202 32.935c0 2.86-1.733 5.2-3.9 5.2s-3.9-2.34-3.9-5.2c0-2.86 1.733-5.2 3.9-5.2s3.9 2.34 3.9 5.2zM13.088 32.935c0 2.86-1.734 5.2-3.9 5.2-2.167 0-3.9-2.34-3.9-5.2 0-2.86 1.733-5.2 3.9-5.2 2.166 0 3.9 2.34 3.9 5.2z" fill="#FECC00"/><path d="M50.27 16.467h-5.201l-7.194-7.973c-.347-.434-.953-.694-1.474-.694h-9.533V3.38A2.515 2.515 0 0024.354.866H5.98A2.515 2.515 0 003.466 3.38v19.154h23.402v10.401h9.534c0-2.86 2.34-5.2 5.2-5.2 2.86 0 5.2 2.34 5.2 5.2h3.207c.607 0 1.127-.52 1.127-1.127V18.114c0-.52-.52-1.3-.867-1.647z" fill="#FED100"/><path d="M27.735 23.401H0V3.381C0 1.472 1.473 0 3.38 0h21.061c1.82 0 3.294 1.473 3.294 3.38v20.021zM1.733 21.668h24.268V3.38c0-.866-.693-1.647-1.646-1.647H3.38c-.953 0-1.647.694-1.647 1.647v18.288zM41.602 39.002a6.03 6.03 0 01-6.067-6.067 6.03 6.03 0 016.067-6.067 6.03 6.03 0 016.067 6.067 6.03 6.03 0 01-6.067 6.067zm0-10.4a4.292 4.292 0 00-4.334 4.333 4.291 4.291 0 004.334 4.334 4.291 4.291 0 004.334-4.334 4.292 4.292 0 00-4.334-4.334zM10.401 39.002a6.03 6.03 0 01-6.067-6.067 6.03 6.03 0 016.067-6.067 6.03 6.03 0 016.067 6.067 6.03 6.03 0 01-6.067 6.067zm0-10.4a4.292 4.292 0 00-4.334 4.333 4.291 4.291 0 004.334 4.334 4.291 4.291 0 004.334-4.334 4.292 4.292 0 00-4.334-4.334zM50.703 23.401H35.97c-.52 0-.867-.346-.867-.866s.347-.867.867-.867h14.734c.52 0 .867.347.867.867s-.347.866-.867.866z" fill="#333"/><path d="M13.867 15.6h-13c-.52 0-.867-.346-.867-.866s.347-.867.867-.867h13c.52 0 .867.347.867.867s-.347.867-.867.867zM10.4 11.267H.868c-.52 0-.867-.347-.867-.867s.347-.866.867-.866H10.4c.52 0 .866.346.866.866s-.346.867-.866.867zM49.23 33.802h-3.294v-.867a4.291 4.291 0 00-4.334-4.333 4.291 4.291 0 00-4.334 4.333v.867H26.001V6.934h10.66c1.214 0 2.254.52 3.034 1.473l5.72 7.194.087.087h3.64c1.56 0 2.774 1.3 2.774 2.773v12.567c.087 1.474-1.213 2.774-2.687 2.774zm-1.648-1.733h1.56c.607 0 1.04-.52 1.04-1.127v-12.48c0-.608-.52-1.041-1.04-1.041h-3.64c-.606 0-1.126-.26-1.473-.693l-5.72-7.194c-.347-.607-.954-.867-1.647-.867h-8.927v23.401h7.887c.433-2.946 2.947-5.2 5.98-5.2 3.034 0 5.547 2.254 5.98 5.2z" fill="#333"/><path d="M27.735 33.802h-13v-.867a4.292 4.292 0 00-4.334-4.333 4.291 4.291 0 00-4.334 4.333v.867H2.6c-1.473 0-2.6-1.127-2.6-2.6v-9.534h27.735v12.134zM16.38 32.069H26V23.4H1.733v7.8c0 .52.347.867.867.867h1.82c.434-2.946 2.947-5.2 5.98-5.2 3.034 0 5.547 2.254 5.98 5.2z" fill="#333"/><path d="M12.134 32.935c0 .953-.78 1.733-1.734 1.733-.953 0-1.733-.78-1.733-1.733 0-.953.78-1.734 1.733-1.734.954 0 1.734.78 1.734 1.734zM43.336 32.935c0 .953-.78 1.733-1.733 1.733-.954 0-1.734-.78-1.734-1.733 0-.953.78-1.734 1.733-1.734.954 0 1.734.78 1.734 1.734zM44.81 14.734H33.541a2.33 2.33 0 01-2.34-2.34v-5.46h5.46c1.214 0 2.254.52 3.034 1.473l5.113 6.327zM32.934 8.667v3.727c0 .347.26.607.607.607h7.714l-2.86-3.554c-.434-.52-1.04-.78-1.734-.78h-3.727z" fill="#333"/></svg><svg fill="none" viewBox="0 0 18 18" id="vk" xmlns="http://www.w3.org/2000/svg"><path d="M2 0a2 2 0 00-2 2v14a2 2 0 002 2h14a2 2 0 002-2V2a2 2 0 00-2-2H2zm.5 5.5H4c.36 0 .5.16.64.57C5.36 8.17 6.57 10 7.07 10c.19 0 .28-.08.28-.55V7.28c-.06-1-.59-1.09-.59-1.44 0-.17.14-.34.38-.34h2.31c.32 0 .42.17.42.54v2.92c0 .31.13.42.23.42.19 0 .35-.11.69-.45 1.06-1.19 1.81-3.01 1.81-3.01.1-.22.27-.42.64-.42h1.47c.45 0 .55.23.45.54-.19.86-1.98 3.39-1.98 3.39-.18.25-.22.37 0 .66.15.21.67.65 1.01 1.06.64.71 1.11 1.31 1.25 1.72.12.42-.09.63-.51.63h-1.48c-.56 0-.72-.45-1.72-1.45-.88-.84-1.23-.95-1.47-.95-.3 0-.39.08-.39.51v1.32c0 .36-.11.57-1.05.57-1.56 0-3.28-.95-4.49-2.7C2.5 8.24 2 6.31 2 5.92c0-.22.08-.42.5-.42z" fill="#333"/></svg><svg fill="none" viewBox="0 0 18 18" id="youtube" xmlns="http://www.w3.org/2000/svg"><path d="M17.298 1.545C16.648.448 15.45 0 13.158 0H4.842C2.498 0 1.278.477.632 1.645 0 2.785 0 4.463 0 6.786v4.428C0 15.714.749 18 4.842 18h8.316c1.987 0 3.088-.395 3.8-1.364.73-.993 1.042-2.614 1.042-5.422V6.786c0-2.45-.049-4.138-.702-5.24zm-5.742 8.066L7.78 12.416a.449.449 0 01-.27.094.46.46 0 01-.3-.12c-.174-.15-.28-.417-.28-.705V6.094c0-.288.106-.556.28-.705.173-.15.388-.16.568-.028l3.777 2.787c.192.142.313.423.313.731s-.12.59-.312.732z" fill="#333"/></svg></svg>